<svg xmlns="http://www.w3.org/2000/svg" width="79.312" height="79.188" viewBox="0 0 79.312 79.188">
  <g id="paint-brush" transform="translate(0 -0.394)">
    <path id="Path_128" data-name="Path 128" d="M45.658,197.568a1.633,1.633,0,0,1-2.233-.062c-6.265-6.39-15.385-5.4-19.789-.931-2.916,2.978-4.529,7.754-6.638,10.67a35.689,35.689,0,0,1-4.094,4.777,7.334,7.334,0,0,1-5.273,2.109,7.635,7.635,0,0,1-5.521-12.9l.062-.062.062-.062a38.145,38.145,0,0,1,4.591-3.97c2.916-2.109,7.63-3.722,10.546-6.7,4.4-4.467,5.4-13.648-.869-19.975a1.486,1.486,0,0,1-.434-1.179,1.7,1.7,0,0,1,.5-1.117l8-8.065L53.6,189.442Z" transform="translate(0 -134.55)" fill="#415661"/>
    <path id="Path_129" data-name="Path 129" d="M16.957,168.163a2.066,2.066,0,0,0-.5,1.117,1.638,1.638,0,0,0,.434,1.179c6.265,6.328,5.335,15.509.869,19.975-2.916,2.978-7.692,4.591-10.546,6.7a38.169,38.169,0,0,0-4.591,3.97l-.062.062-.062.062A7.945,7.945,0,0,0,.393,206.5a7.756,7.756,0,0,0,2.233,5.4l36.229-36.167L26.82,161.959,24.959,160.1Z" transform="translate(-0.331 -134.549)" fill="#3a4d57"/>
    <path id="Path_130" data-name="Path 130" d="M218.119,1.439l26.551,26.489a2.172,2.172,0,0,1,0,3.1L227.487,48.214a2.172,2.172,0,0,1-3.1,0L197.772,21.725a2.172,2.172,0,0,1,0-3.1L215.018,1.439A2.172,2.172,0,0,1,218.119,1.439Z" transform="translate(-166.072 -0.332)" fill="#f4f0d3"/>
    <path id="Path_131" data-name="Path 131" d="M143.4,115.2l31.08,28.1-11.353,10.732-30.4-28.04Z" transform="translate(-111.82 -96.723)" fill="#d3d5d6"/>
    <path id="Path_132" data-name="Path 132" d="M143.4,115.2l15.695,14.144L148.111,140.2l-15.385-14.144Z" transform="translate(-111.82 -96.723)" fill="#c8cacb"/>
    <path id="Path_133" data-name="Path 133" d="M274.073,255.615a2.5,2.5,0,1,0,3.536,0A2.588,2.588,0,0,0,274.073,255.615Zm9.181,5.583a2.5,2.5,0,1,0,0,3.536A2.589,2.589,0,0,0,283.254,261.2Z" transform="translate(-230.276 -214.433)" fill="#bdbfc0"/>
    <path id="Path_134" data-name="Path 134" d="M283,37.391a1.086,1.086,0,0,0-1.551,0l-13.4,13.338a1.1,1.1,0,0,0,1.551,1.551L283,38.942A1.086,1.086,0,0,0,283,37.391Zm-3.722-3.722a1.086,1.086,0,0,0-1.551,0l-13.4,13.338a1.1,1.1,0,0,0,1.551,1.551l13.4-13.338A1.086,1.086,0,0,0,279.278,33.669Zm-7.506-7.444a1.086,1.086,0,0,0-1.551,0L256.821,39.5a1.1,1.1,0,0,0,1.551,1.551l13.4-13.276A1.086,1.086,0,0,0,271.772,26.224ZM268.05,22.5a1.086,1.086,0,0,0-1.551,0L253.1,35.778a1.1,1.1,0,0,0,1.551,1.551l13.4-13.276A1.086,1.086,0,0,0,268.05,22.5Zm-3.784-3.784a1.086,1.086,0,0,0-1.551,0L249.377,32.056a1.1,1.1,0,1,0,1.551,1.551l13.338-13.276A1.161,1.161,0,0,0,264.266,18.718ZM260.543,15a1.086,1.086,0,0,0-1.551,0l-13.4,13.338a1.1,1.1,0,1,0,1.551,1.551l13.4-13.338A1.086,1.086,0,0,0,260.543,15Z" transform="translate(-206.635 -12.028)" fill="#e8e4c8"/>
    <path id="Path_135" data-name="Path 135" d="M330.174,27.534,303.561,1.045a2.172,2.172,0,0,0-3.1,0l-1.923,1.923,11.787,11.663a4.336,4.336,0,0,1-.993,5.4l-1.489,1.737a2.119,2.119,0,0,0,0,3.226,2.569,2.569,0,0,0,3.474-.124l-4.591,4.467a2.142,2.142,0,0,0,0,3.164,2.4,2.4,0,0,0,3.288,0l2.109-2.109a2.246,2.246,0,0,0,0,3.164,2.172,2.172,0,0,0,3.1,0l3.846-4.032a4.457,4.457,0,0,1,6.39,0l2.916,2.854,1.8-1.8a2.1,2.1,0,0,0,0-3.04Z" transform="translate(-251.513)" fill="#e2574c"/>
    <path id="Path_136" data-name="Path 136" d="M182.693,160.843a2.5,2.5,0,1,1-3.536,0A2.472,2.472,0,0,1,182.693,160.843Zm5.583,5.583a2.5,2.5,0,1,1-3.536,0A2.472,2.472,0,0,1,188.276,166.426Z" transform="translate(-150.31 -134.55)" fill="#b4b5b6"/>
    <path id="Path_137" data-name="Path 137" d="M309.723,27.763,308.234,29.5a2.119,2.119,0,0,0,0,3.226,2.616,2.616,0,0,0,3.288.062l1.427-1.365a2.64,2.64,0,0,1-3.474.124,2.119,2.119,0,0,1,0-3.226l1.489-1.737a4.414,4.414,0,0,0,.993-5.335L300.17,9.649l-1.241,1.241,11.787,11.6A4.325,4.325,0,0,1,309.723,27.763Zm-1.365,11.29a2.214,2.214,0,0,1-.124-3.04l-1.117,1.055a2.142,2.142,0,0,0,0,3.164,2.4,2.4,0,0,0,3.288,0l1.241-1.241A2.341,2.341,0,0,1,308.358,39.054Zm5.335,1.117a2.246,2.246,0,0,1,0-3.164l-1.241,1.241a2.246,2.246,0,0,0,0,3.164,2.172,2.172,0,0,0,3.1,0l.993-.993A2.259,2.259,0,0,1,313.694,40.171Zm16.191-1.179L326.969,36.2a4.384,4.384,0,0,0-6.328,0l-.869.869a4.467,4.467,0,0,1,5.955.31l2.916,2.792,1.8-1.8Z" transform="translate(-251.844 -7.798)" fill="#d65348"/>
  </g>
</svg>
