<svg xmlns="http://www.w3.org/2000/svg" width="73.014" height="67.337" viewBox="0 0 73.014 67.337">
  <g id="corrosive" transform="translate(-0.998 -0.999)">
    <path id="Shape" d="M32.735,4.824,2.742,58.7a5.8,5.8,0,0,0-.025,5.639,5.5,5.5,0,0,0,4.731,2.87H67.432a5.5,5.5,0,0,0,4.731-2.87,5.8,5.8,0,0,0-.025-5.639L42.145,4.824a5.331,5.331,0,0,0-9.41,0Z" transform="translate(0.065 0.065)" fill="#f02f19"/>
    <g id="Group_39" data-name="Group 39" transform="translate(0.998 0.999)">
      <path id="Shape-2" data-name="Shape" d="M73.109,58.011,43.248,4.442a6.512,6.512,0,0,0-11.487,0L1.9,58.011a7.028,7.028,0,0,0-.022,6.853,6.688,6.688,0,0,0,5.765,3.472H67.366a6.688,6.688,0,0,0,5.765-3.472A7.028,7.028,0,0,0,73.109,58.011Zm-5.743,7.831H7.644a4.266,4.266,0,0,1-3.658-2.233,4.481,4.481,0,0,1,.032-4.363L33.879,5.676a4.1,4.1,0,0,1,7.252,0L70.992,59.246a4.481,4.481,0,0,1,.032,4.363A4.266,4.266,0,0,1,67.366,65.842Z" transform="translate(-0.998 -0.999)" fill="#464f5d"/>
      <path id="Shape-3" data-name="Shape" d="M41.185,19.438l-.969-2.79a2.116,2.116,0,0,0-2.716-1.32c-11.553,4.055-8.107,2.821-15.484,5.41A3.621,3.621,0,0,0,24.4,27.563l2.545-.895a.362.362,0,0,1-.011-.106c0-3.047,3.181-4.876,5.442-2.5a3.9,3.9,0,0,0,.607.5c6.058-2.119,3.247-1.161,6.9-2.417a2.1,2.1,0,0,0,1.3-2.7Zm-3.738,1.31-5.41-1.257L38.2,17.34l.98,2.8Z" transform="translate(4.523 3.228)" fill="#ffda44"/>
      <path id="Shape-4" data-name="Shape" d="M42.793,26.385a.526.526,0,0,0-.937,0c-.777,1.2-2.652,4.313-2.652,5.74a3.362,3.362,0,0,0,3.12,3.557,3.392,3.392,0,0,0,3.12-3.557C45.444,31.134,44.454,28.983,42.793,26.385Zm6.177,8.764a4.651,4.651,0,0,1-2-.383,5.205,5.205,0,0,1-4.643,3.046,5.49,5.49,0,0,1-5.25-5.687,8.882,8.882,0,0,1,1.044-3.461c-2.886-1.235-5.633-2.524-6.8-3.738-.351-.373-.692-.5-.99-.373a1.541,1.541,0,0,0-.777,1.406c0,.958,1.225,2.311,3.642,3.993A10.559,10.559,0,0,1,35.051,31.6a1.962,1.962,0,0,1-.788,3.142,7.658,7.658,0,0,1-1.139.288c-.913.176.618.117-16.432.117a1.6,1.6,0,1,0,0,3.195H30.078a.532.532,0,0,1,0,1.065H14A1.6,1.6,0,1,0,14,42.6h16.08a.532.532,0,0,1,0,1.065c-18.148,0-12.067.032-13.343.032a1.585,1.585,0,0,0,0,3.163H31.143a.532.532,0,0,1,0,1.065c-7.511,0-7.555-.174-8.168.532a1.6,1.6,0,0,0,1.139,2.662H40.258a8.083,8.083,0,0,0,5.293-2.215,8.745,8.745,0,0,1,1.044-.873c.192-.138.16-.106,2.375-.106a.819.819,0,0,0,.809-.852V36a.819.819,0,0,0-.809-.852Z" transform="translate(3.915 10.357)" fill="#fff"/>
    </g>
  </g>
</svg>
