<svg id="down-arrow" xmlns="http://www.w3.org/2000/svg" width="75.866" height="75.866" viewBox="0 0 75.866 75.866">
  <path id="Path_47" data-name="Path 47" d="M37.933,0A37.933,37.933,0,1,0,75.866,37.933,37.933,37.933,0,0,0,37.933,0Z" fill="#ffc107"/>
  <path id="Path_48" data-name="Path 48" d="M134.669,112.885a1.649,1.649,0,0,0-1.524-1.019H121.6V87.153a1.649,1.649,0,0,0-1.649-1.649H100.16a1.649,1.649,0,0,0-1.649,1.649v24.712H86.966a1.649,1.649,0,0,0-1.168,2.817l23.09,23.116a1.649,1.649,0,0,0,2.332,0l23.09-23.116A1.65,1.65,0,0,0,134.669,112.885Z" transform="translate(-72.123 -72.284)" fill="#fafafa"/>
</svg>
