<svg xmlns="http://www.w3.org/2000/svg" width="41.818" height="32" viewBox="0 0 41.818 32">
  <g id="gmail" transform="translate(0 -63.682)">
    <rect id="Rectangle_19" data-name="Rectangle 19" width="32" height="32" transform="translate(4.909 63.682)" fill="#eceff1"/>
    <path id="Path_83" data-name="Path 83" d="M256,160.736l15.682,12.383V148.672Z" transform="translate(-235.091 -77.756)" fill="#cfd8dc"/>
    <path id="Path_84" data-name="Path 84" d="M37.9,64H36.59L20.909,76.383,5.227,64H3.92A3.922,3.922,0,0,0,0,67.92V91.443a3.922,3.922,0,0,0,3.92,3.92H5.227V70.916L20.909,82.977,36.59,70.913v24.45H37.9a3.922,3.922,0,0,0,3.92-3.92V67.92A3.922,3.922,0,0,0,37.9,64Z" fill="#f44336"/>
  </g>
</svg>
