<svg xmlns="http://www.w3.org/2000/svg" width="78.718" height="78.718" viewBox="0 0 78.718 78.718">
  <g id="flat" transform="translate(-24 -24)">
    <path id="Path_96" data-name="Path 96" d="M293.859,168.43h-2.714v-9.5a12.215,12.215,0,1,0-24.43,0v8.143H264v-8.143a14.929,14.929,0,1,1,29.859,0Z" transform="translate(-199.284 -99.642)" fill="#428dc5"/>
    <path id="Path_97" data-name="Path 97" d="M232,272h38v5.429H232Z" transform="translate(-172.713 -205.927)" fill="#6cbae5"/>
    <path id="Path_98" data-name="Path 98" d="M272.573,329.787H242.714L240,304h35.287Z" transform="translate(-179.355 -232.498)" fill="#4799cf"/>
    <path id="Path_99" data-name="Path 99" d="M349.715,251.732V261.5a2.764,2.764,0,0,1-2.584,2.787,2.716,2.716,0,0,1-2.845-2.711,2.714,2.714,0,1,1-5.429,0,2.714,2.714,0,1,1-5.429,0,2.7,2.7,0,0,1-.363,1.357,2.738,2.738,0,0,1-.994.994,2.679,2.679,0,0,1-1.315.363A2.778,2.778,0,0,1,328,261.5v-9.765A3.732,3.732,0,0,1,331.732,248h14.251A3.732,3.732,0,0,1,349.715,251.732Z" transform="translate(-252.426 -185.998)" fill="#fd9226"/>
    <g id="Group_34" data-name="Group 34" transform="translate(63.359 81.003)">
      <path id="Path_100" data-name="Path 100" d="M256,456h29.859v5.429H256Z" transform="translate(-256 -439.713)" fill="#6cbae5"/>
      <path id="Path_101" data-name="Path 101" d="M392,392h2.714v6.786H392Z" transform="translate(-368.927 -386.571)" fill="#6cbae5"/>
      <path id="Path_102" data-name="Path 102" d="M392,360h2.714v2.714H392Z" transform="translate(-368.927 -360)" fill="#6cbae5"/>
    </g>
    <path id="Path_103" data-name="Path 103" d="M353.357,301.429a2.705,2.705,0,0,1-.363,1.357,2.739,2.739,0,0,1-.994.994V296h1.357Z" transform="translate(-272.354 -225.855)" fill="#e08122"/>
    <path id="Path_104" data-name="Path 104" d="M385.357,301.429A2.713,2.713,0,0,1,384,303.78V296h1.357Z" transform="translate(-298.926 -225.855)" fill="#e08122"/>
    <path id="Path_105" data-name="Path 105" d="M417.357,301.429A2.713,2.713,0,0,1,416,303.78V296h1.357Z" transform="translate(-325.497 -225.855)" fill="#e08122"/>
    <path id="Path_106" data-name="Path 106" d="M99.431,434.858H56L58.714,424h38Z" transform="translate(-26.571 -332.14)" fill="#fbb540"/>
    <path id="Path_107" data-name="Path 107" d="M73.357,392h35.287A1.357,1.357,0,0,1,110,393.357v4.072H72v-4.072A1.357,1.357,0,0,1,73.357,392Z" transform="translate(-39.857 -305.568)" fill="#c17450"/>
    <path id="Path_108" data-name="Path 108" d="M161.357,424h5.429l1.357,10.858H160Z" transform="translate(-112.927 -332.14)" fill="#ea9d2d"/>
    <path id="Path_109" data-name="Path 109" d="M88,434.858,90.714,424h5.429l-2.714,10.858Z" transform="translate(-53.142 -332.14)" fill="#ea9d2d"/>
    <path id="Path_110" data-name="Path 110" d="M170.714,24a2.714,2.714,0,0,1,2.714,2.714V86.432H168V26.714A2.714,2.714,0,0,1,170.714,24Z" transform="translate(-119.57)" fill="#8f563b"/>
    <path id="Path_111" data-name="Path 111" d="M77.429,208A8.584,8.584,0,0,1,72,213.429a8.584,8.584,0,0,1,5.429,5.429,8.584,8.584,0,0,1,5.429-5.429A8.585,8.585,0,0,1,77.429,208Z" transform="translate(-39.857 -152.784)" fill="#fbb540"/>
    <path id="Path_112" data-name="Path 112" d="M429.429,112A8.584,8.584,0,0,1,424,117.429a8.584,8.584,0,0,1,5.429,5.429,8.584,8.584,0,0,1,5.429-5.429A8.584,8.584,0,0,1,429.429,112Z" transform="translate(-332.14 -73.071)" fill="#fbb540"/>
    <path id="Path_113" data-name="Path 113" d="M29.429,304A8.584,8.584,0,0,1,24,309.429a8.584,8.584,0,0,1,5.429,5.429,8.584,8.584,0,0,1,5.429-5.429A8.584,8.584,0,0,1,29.429,304Z" transform="translate(0 -232.498)" fill="#fbb540"/>
    <path id="Path_114" data-name="Path 114" d="M232,424h5.429l2.714,10.858h-5.429Z" transform="translate(-172.713 -332.14)" fill="#ea9d2d"/>
  </g>
</svg>
