<svg xmlns="http://www.w3.org/2000/svg" width="51.599" height="67.394" viewBox="0 0 51.599 67.394">
  <g id="hot-air-balloon" transform="translate(-0.5)">
    <path id="Path_21" data-name="Path 21" d="M97.435,357l-2.912,2.633,7.5,8.556,7.463,2.633Zm0,0" transform="translate(-81.647 -310.008)" fill="#bcf7fc"/>
    <path id="Path_22" data-name="Path 22" d="M196.852,357l2.912,2.633-7.5,8.556-7.463,2.633Zm0,0" transform="translate(-160.042 -310.008)" fill="#97e4fd"/>
    <path id="Path_23" data-name="Path 23" d="M26.3,0A25.8,25.8,0,0,0,3.45,37.778l18.9,7.9Zm0,0" fill="#ffbe46"/>
    <path id="Path_24" data-name="Path 24" d="M196.5,0l3.949,45.675,18.9-7.9A25.8,25.8,0,0,0,196.5,0Zm0,0" transform="translate(-170.201)" fill="#ad2666"/>
    <path id="Path_25" data-name="Path 25" d="M170.449,0,166.5,45.675l15.373-7.9A47.74,47.74,0,0,0,183.349,25.8C183.349,11.574,177.562,0,170.449,0Zm0,0" transform="translate(-144.15)" fill="#ff364e"/>
    <path id="Path_26" data-name="Path 26" d="M111.4,0c-7.113,0-12.9,11.574-12.9,25.8a47.761,47.761,0,0,0,1.475,11.978l11.425,7.9Zm0,0" transform="translate(-85.1)" fill="#ff8b2a"/>
    <path id="Path_27" data-name="Path 27" d="M161.765,298.847h13.423l6.01-6.857a25.768,25.768,0,0,0,3.416-4.99H161.765l-5.265,5.923Zm0,0" transform="translate(-135.466 -249.222)" fill="#4cbeff"/>
    <path id="Path_28" data-name="Path 28" d="M22.91,287a25.753,25.753,0,0,0,3.415,4.989l6.011,6.858H45.76V287Zm0,0" transform="translate(-19.46 -249.222)" fill="#71d1fe"/>
    <path id="Path_29" data-name="Path 29" d="M185.056,442h-5.923l-2.633,4.607,2.633,4.607h5.923Zm0,0" transform="translate(-152.833 -383.82)" fill="#ff5233"/>
    <path id="Path_30" data-name="Path 30" d="M151.5,442h5.923v9.214H151.5Zm0,0" transform="translate(-131.124 -383.82)" fill="#ff6e2e"/>
  </g>
</svg>
