<svg xmlns="http://www.w3.org/2000/svg" width="74.431" height="73.43" viewBox="0 0 74.431 73.43">
  <g id="more" transform="translate(0 -3.354)">
    <path id="Path_115" data-name="Path 115" d="M151.584,28.14C126.93,4.506,90.264,40.491,111.773,62.217,138.353,89.067,172,51.8,151.584,28.14Z" transform="translate(-89.562 -14.499)" fill="#ffb6bd"/>
    <g id="Group_35" data-name="Group 35" transform="translate(0.001 3.354)">
      <path id="Path_116" data-name="Path 116" d="M74.378,29.84C73.311,14.022,57.179,2.768,42.03,3.378A27.847,27.847,0,0,0,17.054,20.422C11.8,31.23,15.119,44.2,23.1,52.7q-2.838,2.151-5.639,4.371C11.385,61.928,5.446,67.039.527,73.122c-1.9,2.365,1.808,5.179,3.573,2.7A107.935,107.935,0,0,1,19.245,59.141c1.762-1.66,3.55-3.3,5.317-4.976a30.144,30.144,0,0,0,3.763,3c8.564,6.16,20.627,7.069,29.687,1.425a1.262,1.262,0,1,0-1.321-2.151A23.426,23.426,0,0,1,40.7,59.475C22.189,56.22,10.627,33.611,22.425,17.8c16.084-23.106,57.3-3.211,46.6,23.943a41.434,41.434,0,0,1-2,4.44,1.266,1.266,0,0,0,2.185,1.26,31.76,31.76,0,0,0,3.6-7A25.906,25.906,0,0,0,74.378,29.84Z" transform="translate(-0.001 -3.354)" fill="#2e386b"/>
      <path id="Path_117" data-name="Path 117" d="M264.956,186.067c2.433,5.306,9.7.714,6.147-3.862A3.716,3.716,0,0,0,264.956,186.067Z" transform="translate(-225.245 -154.57)" fill="#2e386b"/>
      <path id="Path_118" data-name="Path 118" d="M190.812,182.535c3.431,3.172,8.189-1.451,5.567-5.116C192.947,173.548,187.4,178.713,190.812,182.535Z" transform="translate(-161.434 -150.282)" fill="#2e386b"/>
      <path id="Path_119" data-name="Path 119" d="M344.971,186.1c-.4,5.05,7.845,4.728,7.476-.2C352.387,181.544,345.1,181.933,344.971,186.1Z" transform="translate(-293.489 -156.027)" fill="#2e386b"/>
    </g>
  </g>
</svg>
