<svg xmlns="http://www.w3.org/2000/svg" width="52.023" height="75.866" viewBox="0 0 52.023 75.866">
  <g id="paint" transform="translate(-45.834 -8.176)">
    <g id="Group_4" data-name="Group 4" transform="translate(81.891 8.176)">
      <g id="Group_3" data-name="Group 3" transform="translate(0 0)">
        <path id="Path_31" data-name="Path 31" d="M168.392,29.406a44.445,44.445,0,0,0,3.515-6.146,27.353,27.353,0,0,0,2.343-13.937,1.27,1.27,0,0,0-1.984-.922,27.351,27.351,0,0,0-9.142,10.778,45.955,45.955,0,0,0-3.08,9.222,6.323,6.323,0,0,1-.313,1.005h8.66Zm1.068-15.4a1.274,1.274,0,1,1,.619,1.693A1.274,1.274,0,0,1,169.461,14.011Z" transform="translate(-159.732 -8.176)" fill="#f2ad97"/>
      </g>
    </g>
    <g id="Group_6" data-name="Group 6" transform="translate(88.968 8.176)">
      <g id="Group_5" data-name="Group 5" transform="translate(0 0)">
        <path id="Path_32" data-name="Path 32" d="M182.089,29.406h1.583a44.478,44.478,0,0,0,3.515-6.146A27.353,27.353,0,0,0,189.53,9.323a1.27,1.27,0,0,0-1.984-.922l-.073.052a1.251,1.251,0,0,1,.474.87A27.349,27.349,0,0,1,185.6,23.26,44.478,44.478,0,0,1,182.089,29.406Z" transform="translate(-182.089 -8.176)" fill="#e59076"/>
      </g>
    </g>
    <g id="Group_25" data-name="Group 25" transform="translate(45.834 29.406)">
      <g id="Group_15" data-name="Group 15" transform="translate(0 0)">
        <g id="Group_7" data-name="Group 7" transform="translate(2.494 4.751)">
          <path id="Path_33" data-name="Path 33" d="M53.713,90.246h47.034V135.38H53.713Z" transform="translate(-53.713 -90.246)" fill="#f1f2f2"/>
        </g>
        <g id="Group_8" data-name="Group 8" transform="translate(3.761 29.899)">
          <path id="Path_34" data-name="Path 34" d="M58.346,185.988a.633.633,0,0,1-.633-.633V173.009a.633.633,0,1,1,1.266,0v12.346A.633.633,0,0,1,58.346,185.988Zm0-14.879a.633.633,0,0,1-.633-.633v-.158a.633.633,0,1,1,1.266,0v.158A.633.633,0,0,1,58.346,171.11Z" transform="translate(-57.713 -169.685)" fill="#fff"/>
        </g>
        <g id="Group_9" data-name="Group 9" transform="translate(2.494 4.751)">
          <path id="Path_35" data-name="Path 35" d="M97.581,90.246v40.385A1.583,1.583,0,0,1,96,132.214H53.713v3.166h47.034V90.246Z" transform="translate(-53.713 -90.246)" fill="#e6e7e8"/>
        </g>
        <g id="Group_10" data-name="Group 10" transform="translate(2.494 4.751)">
          <path id="Path_36" data-name="Path 36" d="M99.164,90.246v41.968a1.583,1.583,0,0,1-1.583,1.583H53.713v1.583h47.034V90.246Z" transform="translate(-53.713 -90.246)" fill="#d1d3d4"/>
        </g>
        <g id="Group_11" data-name="Group 11">
          <path id="Path_37" data-name="Path 37" d="M95.481,75.239H48.21a2.376,2.376,0,0,0,0,4.751H95.481a2.376,2.376,0,1,0,0-4.751Z" transform="translate(-45.834 -75.239)" fill="#939598"/>
        </g>
        <g id="Group_12" data-name="Group 12" transform="translate(0.103 0.103)">
          <path id="Path_38" data-name="Path 38" d="M96.392,75.563a2.375,2.375,0,0,1-2.273,3.066H46.848a2.378,2.378,0,0,1-.69-.1,2.376,2.376,0,0,0,2.273,1.685H95.7a2.375,2.375,0,0,0,.69-4.649Z" transform="translate(-46.158 -75.563)" fill="#808285"/>
        </g>
        <g id="Group_13" data-name="Group 13" transform="translate(0 49.884)">
          <path id="Path_39" data-name="Path 39" d="M95.481,232.817H48.21a2.376,2.376,0,1,0,0,4.751H95.481a2.376,2.376,0,1,0,0-4.751Z" transform="translate(-45.834 -232.817)" fill="#939598"/>
        </g>
        <g id="Group_14" data-name="Group 14" transform="translate(0.103 49.987)">
          <path id="Path_40" data-name="Path 40" d="M96.392,233.141a2.375,2.375,0,0,1-2.273,3.066H46.848a2.378,2.378,0,0,1-.69-.1,2.376,2.376,0,0,0,2.273,1.685H95.7a2.375,2.375,0,0,0,.69-4.648Z" transform="translate(-46.158 -233.141)" fill="#808285"/>
        </g>
      </g>
      <g id="Group_16" data-name="Group 16" transform="translate(11.953 18.444)">
        <path id="Path_41" data-name="Path 41" d="M109.927,151.249H85.375a1.782,1.782,0,0,1-1.782-1.782V135.284a1.782,1.782,0,0,1,1.782-1.782h24.552a1.782,1.782,0,0,1,1.782,1.782v14.184A1.781,1.781,0,0,1,109.927,151.249Z" transform="translate(-83.593 -133.502)" fill="#d1d3d4"/>
      </g>
      <g id="Group_24" data-name="Group 24" transform="translate(2.494 0)">
        <g id="Group_17" data-name="Group 17">
          <path id="Path_42" data-name="Path 42" d="M80.328,92.744a2.878,2.878,0,0,1-2.878-2.878V87.871a1.962,1.962,0,0,0-3.924,0v3.5a4.128,4.128,0,0,1-8.255,0V87.588a3.73,3.73,0,0,0-7.459,0v7.886a2.048,2.048,0,0,1-2.048,2.048h0a2.046,2.046,0,0,1-2.046-2.045c0-6.109,0-20.241,0-20.241H83.206V89.866a2.878,2.878,0,0,1-2.878,2.878Z" transform="translate(-53.713 -75.239)" fill="#ffc91d"/>
        </g>
        <g id="Group_21" data-name="Group 21" transform="translate(1.257)">
          <g id="Group_18" data-name="Group 18" transform="translate(13.637 10.671)">
            <path id="Path_43" data-name="Path 43" d="M106.061,108.947a1.962,1.962,0,0,0-1.962,1.962v3.5a4.128,4.128,0,0,1-3.336,4.05,4.123,4.123,0,0,0,4.919-4.05v-3.5a1.961,1.961,0,0,1,1.17-1.794A1.949,1.949,0,0,0,106.061,108.947Z" transform="translate(-100.763 -108.947)" fill="#ffa91a"/>
          </g>
          <g id="Group_19" data-name="Group 19" transform="translate(0 8.621)">
            <path id="Path_44" data-name="Path 44" d="M62.673,102.472a3.732,3.732,0,0,0-3.73,3.731v7.886a2.048,2.048,0,0,1-1.258,1.89,2.038,2.038,0,0,0,.79.158h0a2.048,2.048,0,0,0,2.048-2.048V106.2a3.732,3.732,0,0,1,2.94-3.645A3.718,3.718,0,0,0,62.673,102.472Z" transform="translate(-57.684 -102.472)" fill="#ffa91a"/>
          </g>
          <g id="Group_20" data-name="Group 20" transform="translate(24.566)">
            <path id="Path_45" data-name="Path 45" d="M137.373,75.239V89.866a2.877,2.877,0,0,1-2.087,2.765,2.873,2.873,0,0,0,3.669-2.765V75.239Z" transform="translate(-135.286 -75.239)" fill="#ffa91a"/>
          </g>
        </g>
        <g id="Group_22" data-name="Group 22" transform="translate(0.087 23.975)">
          <circle id="Ellipse_1" data-name="Ellipse 1" cx="1.96" cy="1.96" r="1.96" fill="#ffc91d"/>
        </g>
        <g id="Group_23" data-name="Group 23" transform="translate(1.414 23.975)">
          <path id="Path_46" data-name="Path 46" d="M58.812,150.974a1.949,1.949,0,0,0-.633.107,1.958,1.958,0,0,1,0,3.706,1.959,1.959,0,1,0,.633-3.813Z" transform="translate(-58.179 -150.974)" fill="#ffa91a"/>
        </g>
      </g>
    </g>
  </g>
</svg>
