<svg id="pantheon" xmlns="http://www.w3.org/2000/svg" width="75.74" height="75.74" viewBox="0 0 75.74 75.74">
  <path id="Path_49" data-name="Path 49" d="M220.686,193h-9.467A2.22,2.22,0,0,0,209,195.219v26.035a2.22,2.22,0,0,0,2.219,2.219h9.467a2.22,2.22,0,0,0,2.219-2.219V195.219A2.22,2.22,0,0,0,220.686,193Z" transform="translate(-178.083 -164.45)" fill="#edbc85"/>
  <path id="Path_50" data-name="Path 50" d="M262.953,195.219v26.035a2.22,2.22,0,0,1-2.219,2.219H256V193h4.734A2.22,2.22,0,0,1,262.953,195.219Z" transform="translate(-218.13 -164.45)" fill="#e9a86c"/>
  <path id="Path_51" data-name="Path 51" d="M211.545,389.885l-2.281-7.985H195.359l-2.281,7.985a2.219,2.219,0,0,0,2.133,2.828h14.2A2.219,2.219,0,0,0,211.545,389.885Z" transform="translate(-164.442 -325.406)" fill="#e9a86c"/>
  <path id="Path_52" data-name="Path 52" d="M263.1,392.714H256V381.9h6.953l2.281,7.985A2.219,2.219,0,0,1,263.1,392.714Z" transform="translate(-218.13 -325.406)" fill="#e79a58"/>
  <path id="Path_53" data-name="Path 53" d="M60.686,223.473H51.219A2.219,2.219,0,0,1,49,221.254V195.219A2.219,2.219,0,0,1,51.219,193h9.467a2.219,2.219,0,0,1,2.219,2.219v26.035A2.219,2.219,0,0,1,60.686,223.473Z" transform="translate(-41.751 -164.45)" fill="#edbc85"/>
  <path id="Path_54" data-name="Path 54" d="M51.545,389.885,49.264,381.9H35.359l-2.281,7.985a2.219,2.219,0,0,0,2.133,2.828h14.2A2.219,2.219,0,0,0,51.545,389.885Z" transform="translate(-28.111 -325.406)" fill="#e9a86c"/>
  <path id="Path_55" data-name="Path 55" d="M388.686,223.473h-9.467A2.219,2.219,0,0,1,377,221.254V195.219A2.219,2.219,0,0,1,379.219,193h9.467a2.219,2.219,0,0,1,2.219,2.219v26.035A2.219,2.219,0,0,1,388.686,223.473Z" transform="translate(-321.231 -164.45)" fill="#e9a86c"/>
  <path id="Path_56" data-name="Path 56" d="M379.545,389.885l-2.281-7.985H363.359l-2.281,7.985a2.219,2.219,0,0,0,2.133,2.828h14.2A2.219,2.219,0,0,0,379.545,389.885Z" transform="translate(-307.59 -325.406)" fill="#e79a58"/>
  <path id="Path_57" data-name="Path 57" d="M73.521,425H2.219A2.22,2.22,0,0,0,0,427.219v8.432a2.22,2.22,0,0,0,2.219,2.219h71.3a2.22,2.22,0,0,0,2.219-2.219v-8.432A2.22,2.22,0,0,0,73.521,425Z" transform="translate(0 -362.13)" fill="#f2d1a3"/>
  <path id="Path_58" data-name="Path 58" d="M293.87,427.219v8.432a2.22,2.22,0,0,1-2.219,2.219H256V425h35.651A2.22,2.22,0,0,1,293.87,427.219Z" transform="translate(-218.13 -362.13)" fill="#edbc85"/>
  <path id="Path_59" data-name="Path 59" d="M35.787,142.905H19.219A2.219,2.219,0,0,1,17,140.686v-9.467A2.219,2.219,0,0,1,19.219,129H35.787a2.219,2.219,0,0,1,2.219,2.219v9.467A2.219,2.219,0,0,1,35.787,142.905Z" transform="translate(-14.485 -109.917)" fill="#e9a86c"/>
  <path id="Path_60" data-name="Path 60" d="M371.787,142.905H355.219A2.219,2.219,0,0,1,353,140.686v-9.467A2.219,2.219,0,0,1,355.219,129h16.568a2.219,2.219,0,0,1,2.219,2.219v9.467A2.219,2.219,0,0,1,371.787,142.905Z" transform="translate(-300.781 -109.917)" fill="#e79a58"/>
  <path id="Path_61" data-name="Path 61" d="M175.4,129H145.219A2.22,2.22,0,0,0,143,131.219v9.467a2.22,2.22,0,0,0,2.219,2.219H175.4a2.22,2.22,0,0,0,2.219-2.219v-9.467A2.22,2.22,0,0,0,175.4,129Z" transform="translate(-121.846 -109.917)" fill="#edbc85"/>
  <path id="Path_62" data-name="Path 62" d="M273.9,131.219v9.467a2.22,2.22,0,0,1-2.219,2.219H256V129h15.68A2.22,2.22,0,0,1,273.9,131.219Z" transform="translate(-218.13 -109.917)" fill="#e9a86c"/>
  <path id="Path_63" data-name="Path 63" d="M74.569,19.346,38.918.264a2.215,2.215,0,0,0-2.095,0L1.172,19.346a2.219,2.219,0,0,0,1.047,4.175h71.3a2.219,2.219,0,0,0,1.047-4.175Z" transform="translate(0 0)" fill="#f2d1a3"/>
  <path id="Path_64" data-name="Path 64" d="M293.8,21.842a2.219,2.219,0,0,1-2.153,1.679H256V0a2.222,2.222,0,0,1,1.047.263L292.7,19.346A2.22,2.22,0,0,1,293.8,21.842Z" transform="translate(-218.13)" fill="#edbc85"/>
  <circle id="Ellipse_2" data-name="Ellipse 2" cx="4.5" cy="4.5" r="4.5" transform="translate(33.74 10)" fill="#e9a86c"/>
  <path id="Path_65" data-name="Path 65" d="M260.734,68.734A4.734,4.734,0,0,1,256,73.467V64A4.734,4.734,0,0,1,260.734,68.734Z" transform="translate(-218.13 -54.533)" fill="#e79a58"/>
  <path id="Path_66" data-name="Path 66" d="M75.74,195.219a2.22,2.22,0,0,1-2.219,2.219H2.219a2.219,2.219,0,0,1,0-4.438h71.3A2.22,2.22,0,0,1,75.74,195.219Z" transform="translate(0 -164.45)" fill="#f2d1a3"/>
  <path id="Path_67" data-name="Path 67" d="M293.87,195.219a2.22,2.22,0,0,1-2.219,2.219H256V193h35.651A2.22,2.22,0,0,1,293.87,195.219Z" transform="translate(-218.13 -164.45)" fill="#edbc85"/>
</svg>
