<svg xmlns="http://www.w3.org/2000/svg" width="79.215" height="71.549" viewBox="0 0 79.215 71.549">
  <g id="brush" transform="translate(-8 -56)">
    <g id="Group_37" data-name="Group 37" transform="translate(9.278 57.278)">
      <path id="Path_120" data-name="Path 120" d="M232,288h7.666v30.664a2.555,2.555,0,0,1-2.555,2.555h-2.555A2.555,2.555,0,0,1,232,318.664Z" transform="translate(-197.503 -252.226)" fill="#2d2d30"/>
      <path id="Path_121" data-name="Path 121" d="M101.327,64V79.332H59.165v3.833a2.555,2.555,0,0,1-5.111,0V97.219a2.555,2.555,0,1,1-5.111,0V89.553a2.555,2.555,0,1,1-5.111,0V79.332H40V64Z" transform="translate(-36.167 -64)" fill="#ffda44"/>
      <g id="Group_36" data-name="Group 36" transform="translate(0 3.833)">
        <path id="Path_122" data-name="Path 122" d="M16,88h3.833v7.666H16Z" transform="translate(-16 -88)" fill="#c6c5ca"/>
        <path id="Path_123" data-name="Path 123" d="M424,88h3.833v7.666H424Z" transform="translate(-358.84 -88)" fill="#c6c5ca"/>
        <path id="Path_124" data-name="Path 124" d="M240,264h5.111v3.833H240Z" transform="translate(-204.226 -235.892)" fill="#c6c5ca"/>
      </g>
    </g>
    <g id="Group_38" data-name="Group 38" transform="translate(8 56)">
      <path id="Path_125" data-name="Path 125" d="M82.1,63.666H79.549V61.111a1.278,1.278,0,0,0-1.278-1.278H75.716V57.278A1.278,1.278,0,0,0,74.438,56H13.111a1.278,1.278,0,0,0-1.278,1.278v2.555H9.278A1.278,1.278,0,0,0,8,61.111v7.666a1.278,1.278,0,0,0,1.278,1.278h2.555v2.555a1.278,1.278,0,0,0,1.278,1.278h2.555v8.944a3.834,3.834,0,0,0,5.111,3.614V90.5a3.833,3.833,0,1,0,7.666,0V80.057a3.834,3.834,0,0,0,5.111-3.614V73.887H74.438a1.278,1.278,0,0,0,1.278-1.278V70.054h2.555a1.278,1.278,0,0,0,1.278-1.278V66.221H82.1a2.559,2.559,0,0,1,2.555,2.555V79A2.559,2.559,0,0,1,82.1,81.553h-34.5a1.278,1.278,0,0,0-1.278,1.278v5.111H45.052a1.278,1.278,0,0,0-1.278,1.278v2.555A1.278,1.278,0,0,0,42.5,93.052v30.664a3.838,3.838,0,0,0,3.833,3.833h2.555a3.838,3.838,0,0,0,3.833-3.833V93.052a1.278,1.278,0,0,0-1.278-1.278V89.219a1.278,1.278,0,0,0-1.278-1.278H48.885V84.108H82.1A5.116,5.116,0,0,0,87.215,79V68.777A5.116,5.116,0,0,0,82.1,63.666ZM11.833,67.5H10.555V62.388h1.278ZM73.16,71.332H32.275A1.278,1.278,0,0,0,31,72.609v3.833a1.278,1.278,0,1,1-2.555,0,1.278,1.278,0,0,0-2.555,0V90.5a1.278,1.278,0,1,1-2.555,0V82.831a1.278,1.278,0,1,0-2.555,0,1.278,1.278,0,0,1-2.555,0V72.609a1.278,1.278,0,0,0-1.278-1.278H14.388V58.555H73.16ZM76.993,67.5H75.716V62.388h1.278ZM46.33,90.5h2.555v1.278H46.33Zm3.833,3.833v29.386a1.279,1.279,0,0,1-1.278,1.278H46.33a1.279,1.279,0,0,1-1.278-1.278V94.33Z" transform="translate(-8 -56)"/>
      <path id="Path_126" data-name="Path 126" d="M89.278,152A1.278,1.278,0,0,0,88,153.278v6.388a1.278,1.278,0,1,0,2.555,0v-6.388A1.278,1.278,0,0,0,89.278,152Z" transform="translate(-75.223 -136.668)"/>
      <path id="Path_127" data-name="Path 127" d="M121.278,144A1.278,1.278,0,0,0,120,145.278v1.278a1.278,1.278,0,1,0,2.555,0v-1.278A1.278,1.278,0,0,0,121.278,144Z" transform="translate(-102.113 -129.946)"/>
    </g>
  </g>
</svg>
